<?xml version="1.0" encoding="iso-8859-1"?>
<!-- Generator: Adobe Illustrator 19.1.0, SVG Export Plug-In . SVG Version: 6.00 Build 0)  -->
<svg version="1.1" id="Capa_1" xmlns="http://www.w3.org/2000/svg" xmlns:xlink="http://www.w3.org/1999/xlink" x="0px" y="0px"
	 viewBox="0 0 202.614 202.614" style="enable-background:new 0 0 202.614 202.614;" xml:space="preserve">
<g>
	<g>
		<g>
			<path style="fill:#010002;" d="M177.91,55.377h-22.589v-1.368C155.311,24.25,131.091,0,101.302,0
				C71.503,0,47.292,24.25,47.292,54.009v1.368H24.704L11.495,202.614h179.624L177.91,55.377L177.91,55.377z M101.302,6.624
				c19.687,0,36.619,12.105,43.761,29.232c-9.448-14.137-25.5-23.478-43.761-23.478c-18.231,0-34.313,9.34-43.77,23.507
				C64.713,18.729,81.635,6.624,101.302,6.624z M57.297,55.377c4.406-20.263,22.481-35.485,44.024-35.485
				c21.582,0,39.618,15.222,44.024,35.485H57.297z"/>
		</g>
	</g>
</g>
<g>
</g>
<g>
</g>
<g>
</g>
<g>
</g>
<g>
</g>
<g>
</g>
<g>
</g>
<g>
</g>
<g>
</g>
<g>
</g>
<g>
</g>
<g>
</g>
<g>
</g>
<g>
</g>
<g>
</g>
</svg>
